<svg xmlns="http://www.w3.org/2000/svg" height="24" viewBox="0 -960 960 960" width="24"><path d="M155.384-176.922v-80.001h649.232v80.001h-70.77v-40.001H515.385v40.001h-70.77v-40.001H226.154v40.001h-70.77Zm117.693-160.001q-13.731 0-23.02-9.288-9.288-9.289-9.288-23.02v-415.385q0-13.73 9.288-23.019 9.289-9.288 23.02-9.288h413.846q13.731 0 23.02 9.288 9.288 9.289 9.288 23.019v409.231q0 16.347-10.615 27.404-10.616 11.058-26.308 11.058H273.077Zm7.692-40h398.462v-400H280.769v400ZM360-633.846h240v-40H360v40Zm-79.231 256.923v-400 400Z"/></svg>