<?xml version="1.0" encoding="UTF-8" standalone="no"?>
<svg
   xml:space="preserve"
   width="1000"
   height="1000"
   version="1.1"
   id="svg1"
   sodipodi:docname="apple.svg"
   inkscape:version="1.3 (0e150ed6c4, 2023-07-21)"
   xmlns:inkscape="http://www.inkscape.org/namespaces/inkscape"
   xmlns:sodipodi="http://sodipodi.sourceforge.net/DTD/sodipodi-0.dtd"
   xmlns="http://www.w3.org/2000/svg"
   xmlns:svg="http://www.w3.org/2000/svg"><defs
   id="defs1" /><sodipodi:namedview
   id="namedview1"
   pagecolor="#ffffff"
   bordercolor="#000000"
   borderopacity="0.25"
   inkscape:showpageshadow="2"
   inkscape:pageopacity="0.0"
   inkscape:pagecheckerboard="0"
   inkscape:deskcolor="#d1d1d1"
   showgrid="false"
   showguides="false"
   inkscape:zoom="0.821"
   inkscape:cx="407.42996"
   inkscape:cy="373.32521"
   inkscape:window-width="1920"
   inkscape:window-height="1017"
   inkscape:window-x="-8"
   inkscape:window-y="-8"
   inkscape:window-maximized="1"
   inkscape:current-layer="svg1" />&#10;  &#10;<path
   d="m 881.1,340.9 c -5.8,4.5 -108.2,62.2 -108.2,190.5 0,148.4 130.3,200.9 134.2,202.2 -0.6,3.2 -20.7,71.9 -68.7,141.9 -42.8,61.6 -87.5,123.1 -155.5,123.1 -68,0 -85.5,-39.5 -164,-39.5 -76.5,0 -103.7,40.8 -165.9,40.8 -62.2,0 -105.6,-57 -155.5,-127 C 139.7,790.7 93,663 93,541.8 93,347.4 219.4,244.3 343.8,244.3 c 66.1,0 121.2,43.4 162.7,43.4 39.5,0 101.1,-46 176.3,-46 28.5,0 130.9,2.6 198.3,99.2 z M 647.1,159.4 C 678.2,122.5 700.2,71.3 700.2,20.1 700.2,13 699.6,5.8 698.3,0 647.7,1.9 587.5,33.7 551.2,75.8 c -28.5,32.4 -55.1,83.6 -55.1,135.5 0,7.8 1.3,15.6 1.9,18.1 3.2,0.6 8.4,1.3 13.6,1.3 45.4,0 102.5,-30.4 135.5,-71.3 z"
   id="path1" /></svg>
