<svg width="30" height="30" viewBox="0 0 30 30" fill="none" xmlns="http://www.w3.org/2000/svg">
<path d="M14.1076 3.70334L14.0053 0.500069H15.2321L15.164 3.87373C14.8232 3.80558 14.4484 3.73742 14.1076 3.70334ZM15.2321 29.3977C14.8232 29.3977 14.4143 29.3636 14.0053 29.3295V29.4999H15.2321V29.3977ZM13.1193 3.63519C13.1534 3.63519 13.1534 3.63519 13.1875 3.63519L12.7104 0.602301L11.5177 0.840843L12.097 3.70334C12.4378 3.66927 12.7786 3.63519 13.1193 3.63519ZM15.2321 20.6398L16.5611 29.3636L17.7539 29.1592L16.0159 20.5717C15.7433 20.6057 15.5047 20.6398 15.2321 20.6398ZM11.1428 3.83965L10.2568 1.18162L9.0982 1.59055L10.0524 4.0782C10.4272 3.97596 10.768 3.87373 11.1428 3.83965ZM16.2204 20.5376L19.0147 28.8184L20.1734 28.4095L17.0382 20.3672C16.7656 20.4353 16.493 20.5035 16.2204 20.5376ZM9.13228 4.35081L7.90549 2.13578L6.84909 2.74918L8.10996 4.79382C8.45073 4.65751 8.7915 4.48712 9.13228 4.35081ZM17.2086 20.299L21.332 27.8642L22.3884 27.2508L17.9583 19.9923C17.7539 20.0946 17.4812 20.1968 17.2086 20.299ZM7.22394 5.30498L5.79269 3.49888L4.8726 4.28266L6.30385 5.91837C6.57647 5.67983 6.88317 5.47537 7.22394 5.30498ZM18.1969 19.8901L23.4789 26.5011L24.3989 25.7173L18.9125 19.4812C18.708 19.6175 18.4354 19.7538 18.1969 19.8901ZM5.486 6.56585L3.91844 5.20275L3.13465 6.12284L4.66814 7.34963C4.94076 7.07701 5.1793 6.83846 5.486 6.56585ZM19.151 19.3449L25.319 24.7973L26.1028 23.8772L19.7985 18.8337C19.6281 19.0041 19.3896 19.1745 19.151 19.3449ZM3.98659 8.20156L2.38495 7.21332L1.77156 8.26971L3.33912 9.12165C3.54358 8.81495 3.74805 8.50826 3.98659 8.20156ZM20.037 18.5952L26.8525 22.7526L27.4659 21.6962L20.6504 17.9818C20.48 18.1862 20.2756 18.3907 20.037 18.5952ZM2.82796 10.0758L1.22632 9.46242L0.817395 10.6211L2.38495 11.1322C2.48718 10.7914 2.65757 10.4166 2.82796 10.0758ZM20.8549 17.7092L28.0112 20.5035L28.4201 19.3449L21.332 16.9595C21.2297 17.2321 21.0594 17.4706 20.8549 17.7092ZM2.04418 12.1886L0.476622 11.8819L0.272155 13.0746L1.80564 13.3132C1.87379 12.9383 1.94195 12.5635 2.04418 12.1886ZM21.5705 16.6528L28.7949 18.1181L28.9994 16.9254L21.9454 15.8349C21.8431 16.1075 21.7068 16.3801 21.5705 16.6528ZM1.66933 15.5623C1.66933 15.426 1.66933 15.2556 1.66933 15.1193C1.66933 14.8807 1.66933 14.6422 1.7034 14.4377L0.169922 14.4036V15.6304L1.66933 15.5623ZM22.0817 15.426L29.1016 15.5964V14.3696L22.3202 14.54C22.2862 14.8467 22.1839 15.1533 22.0817 15.426ZM1.73748 16.6868L0.238076 16.9254L0.442542 18.1181L1.87379 17.8114C1.83971 17.4365 1.77156 17.0617 1.73748 16.6868ZM22.4225 14.0629L29.0335 13.0746L28.829 11.8819L22.5247 13.1428C22.4906 13.4495 22.4565 13.7562 22.4225 14.0629ZM2.14641 18.9019L0.783316 19.3449L1.19224 20.5035L2.45311 19.9923C2.38495 19.6516 2.24864 19.2767 2.14641 18.9019ZM22.4565 12.6316L28.4542 10.6211L28.0452 9.46242L22.3884 11.6775C22.4225 11.9842 22.4565 12.2908 22.4565 12.6316ZM2.93019 21.0828L1.77156 21.6962L2.38495 22.7526L3.44135 22.1051C3.23689 21.7984 3.0665 21.4236 2.93019 21.0828ZM22.2862 11.0981L27.4659 8.26971L26.8525 7.21332L22.0135 10.144C22.1498 10.4847 22.218 10.7914 22.2862 11.0981ZM3.13465 23.8431L3.91844 24.7632L4.70222 24.0816C4.46367 23.7749 4.22513 23.4682 4.02067 23.1275L3.13465 23.8431ZM21.8431 9.56466L26.1369 6.12284L25.3531 5.20275L21.4001 8.67864C21.5705 8.95126 21.7068 9.25796 21.8431 9.56466ZM4.83852 25.6833L5.75862 26.467L6.30385 25.8196C5.99716 25.547 5.72454 25.2743 5.45192 24.9676L4.83852 25.6833ZM21.0594 8.06525L24.3989 4.28266L23.4789 3.49888L20.48 7.24739C20.6845 7.52001 20.889 7.79263 21.0594 8.06525ZM6.84909 27.2167L7.90549 27.8301L8.21218 27.2849C7.87141 27.0804 7.56472 26.8419 7.22394 26.6034L6.84909 27.2167ZM20.003 6.66808L22.3884 2.74918L21.332 2.13578L19.2533 5.95245C19.5259 6.19099 19.7644 6.42954 20.003 6.66808ZM9.0982 28.4095L10.2568 28.8184L10.3931 28.4095C10.0183 28.2731 9.64344 28.1028 9.30266 27.8983L9.0982 28.4095ZM20.1734 1.59055L19.0147 1.18162L17.7539 4.89605C18.0606 5.06644 18.3672 5.2709 18.6399 5.47537L20.1734 1.59055ZM12.7445 29.1251C12.3356 29.0569 11.9607 28.9547 11.5859 28.8184L11.5177 29.1251L12.7104 29.3295L12.7445 29.1251ZM17.7539 0.840843L16.5611 0.636378L16.0159 4.14635C16.3567 4.24858 16.6975 4.38489 17.0042 4.55528L17.7539 0.840843Z" fill="url(#paint0_linear_101_260)"/>
<path d="M14.2445 9.32674L14.1082 3.70397C14.483 3.73804 14.8238 3.8062 15.1646 3.87435L15.0283 9.32674H14.2445ZM14.9601 20.6745H14.7216H14.2445L14.04 29.3302C14.4489 29.3642 14.8579 29.3983 15.2668 29.3983L15.0623 20.6745H14.9601V20.6745ZM14.04 9.32674L13.1881 3.63581C13.154 3.63581 13.154 3.63581 13.1199 3.63581C12.7792 3.63581 12.4384 3.66989 12.0976 3.66989L13.2562 9.42897L14.04 9.32674ZM16.0165 20.5723V20.5041L15.2327 20.6404C15.5053 20.6404 15.7439 20.6064 16.0165 20.5723ZM13.0518 9.5312L11.1434 3.84028C10.7686 3.90843 10.4278 3.97658 10.053 4.07882L12.3021 9.80382L13.0518 9.5312ZM16.1869 20.47L16.221 20.5382C16.4936 20.5041 16.7662 20.436 17.0048 20.3678L16.9366 20.1974L16.1869 20.47ZM12.1317 9.87197L9.13287 4.35144C8.7921 4.48775 8.45132 4.62406 8.11055 4.79444L11.4501 10.2809L12.1317 9.87197ZM17.107 20.0952L17.2092 20.2656C17.4818 20.1633 17.7204 20.0611 17.993 19.9589L17.8226 19.6863L17.107 20.0952ZM11.2797 10.3831L7.19045 5.27153C6.88376 5.47599 6.54299 5.68045 6.27037 5.88492L10.6664 10.8943L11.2797 10.3831ZM17.9589 19.584L18.1975 19.8567C18.436 19.7203 18.7086 19.584 18.9131 19.4477L18.5723 19.0388L17.9589 19.584ZM10.53 11.0306L5.45251 6.56647C5.17989 6.80501 4.90727 7.07763 4.63465 7.35025L9.98481 11.644L10.53 11.0306ZM18.7086 18.9366L19.1516 19.3114C19.3902 19.141 19.5946 18.9706 19.8332 18.8003L19.2198 18.3232L18.7086 18.9366ZM9.91665 11.8144L3.98718 8.20218C3.74864 8.50888 3.54418 8.81558 3.33971 9.15635L9.50772 12.53L9.91665 11.8144ZM19.3561 18.1869L20.0717 18.6299C20.2762 18.4254 20.4806 18.2209 20.6851 18.0165L19.765 17.5053L19.3561 18.1869ZM9.43957 12.6663L2.82855 10.0764C2.65816 10.4172 2.52185 10.758 2.38554 11.1328L9.16695 13.416L9.43957 12.6663ZM19.8332 17.3008L20.8896 17.7098C21.06 17.4712 21.2303 17.2327 21.4007 16.9601L20.1399 16.5171L19.8332 17.3008ZM9.09879 13.6205L2.0107 12.1892C1.90846 12.5641 1.8403 12.9389 1.77215 13.3138L8.9284 14.4043L9.09879 13.6205ZM20.1399 16.3808L21.5711 16.6534C21.7074 16.3808 21.8437 16.1081 21.946 15.8355L20.2762 15.597L20.1399 16.3808ZM1.66992 15.5629L8.96248 15.3925V14.5747L1.704 14.4043C1.704 14.6428 1.66992 14.8814 1.66992 15.0858C1.66992 15.2562 1.66992 15.4266 1.66992 15.5629ZM20.3103 15.3925L22.1164 15.4266C22.2186 15.1199 22.2867 14.8473 22.3549 14.5406L20.3103 14.5747V15.3925ZM8.96248 15.597L1.73808 16.6875C1.77215 17.0623 1.84031 17.4372 1.90846 17.812L9.09879 16.3808L8.96248 15.597ZM20.2762 14.4043L22.389 14.0976C22.4231 13.7909 22.4571 13.4842 22.4571 13.1434L20.1058 13.6205L20.2762 14.4043ZM9.16695 16.5511L2.147 18.9025C2.24924 19.2773 2.35147 19.6522 2.48778 19.993L9.43957 17.2668L9.16695 16.5511ZM20.1058 13.416L22.4912 12.6322C22.4912 12.3255 22.4571 11.9848 22.389 11.6781L19.8332 12.6663L20.1058 13.416ZM9.50772 17.4712L2.89671 21.0834C3.06709 21.4242 3.23748 21.7991 3.40787 22.1398L9.88258 18.1869L9.50772 17.4712ZM19.7309 12.4959L22.2868 11.0988C22.2186 10.7921 22.1504 10.4513 22.0482 10.1446L19.3561 11.7803L19.7309 12.4959ZM10.0189 18.3232L4.02126 23.1281C4.22573 23.4689 4.46427 23.7756 4.70281 24.0822L10.53 18.9366L10.0189 18.3232ZM19.2198 11.644L21.8097 9.56528C21.6734 9.25858 21.537 8.95189 21.4007 8.64519L18.7086 11.0306L19.2198 11.644ZM10.6664 19.0729L5.45251 24.9683C5.72513 25.275 5.99775 25.5476 6.30445 25.8202L11.2797 19.584L10.6664 19.0729ZM18.5723 10.8943L21.06 8.06587C20.8896 7.75918 20.6851 7.48656 20.4806 7.21394L17.9589 10.3491L18.5723 10.8943ZM11.4501 19.6863L7.25861 26.604C7.56531 26.8425 7.90608 27.0811 8.24686 27.2855L12.1658 20.0952L11.4501 19.6863ZM17.8226 10.2809L20.0036 6.6687C19.765 6.43016 19.5265 6.15754 19.2539 5.95307L17.107 9.87197L17.8226 10.2809ZM12.3021 20.1974L9.30326 27.8989C9.64403 28.0693 10.0189 28.2397 10.3937 28.4101L13.0859 20.47L12.3021 20.1974ZM16.9366 9.80382L18.6405 5.47599C18.3678 5.27153 18.0611 5.06706 17.7544 4.89667L16.1869 9.5312L16.9366 9.80382ZM13.2562 20.5041L11.5864 28.819C11.9613 28.9212 12.3702 29.0235 12.7451 29.1257L14.04 20.6404L13.2562 20.5041ZM17.0048 4.48775C16.6981 4.35144 16.3573 4.21513 16.0165 4.07882L15.2327 9.29266L16.0165 9.42897L17.0048 4.48775Z" fill="url(#paint1_linear_101_260)"/>
<defs>
<linearGradient id="paint0_linear_101_260" x1="0.140445" y1="14.9897" x2="29.1197" y2="14.9897" gradientUnits="userSpaceOnUse">
<stop stop-color="#FC5251"/>
<stop offset="0.9949" stop-color="#8C18DB"/>
</linearGradient>
<linearGradient id="paint1_linear_101_260" x1="1.65956" y1="16.5231" x2="22.4827" y2="16.5231" gradientUnits="userSpaceOnUse">
<stop stop-color="#8C18DB"/>
<stop offset="0.9989" stop-color="#FC5251"/>
</linearGradient>
</defs>
</svg>
