<svg xmlns="http://www.w3.org/2000/svg" width="74.711" height="69.59" xmlns:v="https://vecta.io/nano"><path d="M5.57 60.71l-.24 1.88a1.54 1.54 0 0 0 1.35 1.72h61.11a1.56 1.56 0 0 0 1.58-1.54 1.15 1.15 0 0 0 0-.19l-.25-1.88a2.68 2.68 0 0 1 2.38-2.93 2.64 2.64 0 0 1 2.91 2.34h0l.24 1.83c.47 4.07-1.84 7.65-6 7.65H6.01c-4.12 0-6.42-3.58-5.95-7.65l.24-1.83a2.62 2.62 0 0 1 2.88-2.34h0a2.69 2.69 0 0 1 2.38 2.94" fill="red"/><path d="M61.87 46.58a5 5 0 0 0 5.26-4.71 2.35 2.35 0 0 0 0-.26c-.06-2.91-2.71-4.79-5.66-4.8H55.5a2.5 2.5 0 0 1 0-5h4c2.69-.11 4.76-1.74 4.89-4.27.13-2.73-2.21-4.77-5.06-4.77h-9.68v23.77h12.22m7.33-19a7.84 7.84 0 0 1-2.33 5.61l-.15.17.2.12a9.74 9.74 0 0 1 5 8.14 10 10 0 0 1-9.8 10.13h-15a2.63 2.63 0 0 1-2.59-2.65h0V20.53a2.62 2.62 0 0 1 2.65-2.66h0 12.15a9.61 9.61 0 0 1 9.87 9.33v.33M21.76 41.95l.07.2.07-.2 2.38-6.23 2.69-6.85 2.58-5.9a19.91 19.91 0 0 1 2-3.61 4 4 0 0 1 3.21-1.49h.61a2.91 2.91 0 0 1 1.92.62 2.15 2.15 0 0 1 .76 1.38l3.81 29.5a2.47 2.47 0 0 1-.65 1.79 2.6 2.6 0 0 1-1.85.6 3 3 0 0 1-1.92-.56 2.07 2.07 0 0 1-.89-1.48l-.36-3.27-.93-7.64-1.59-12.69v-.26l-1.22 2.56a61.21 61.21 0 0 0-1.35 3.16l-1.47 3.91-2.89 8.06a79.63 79.63 0 0 0-1 3l-.82 2.34a3.42 3.42 0 0 1-4.6 1.49 3.46 3.46 0 0 1-1.53-1.51c-.1-.19-.44-1.21-.83-2.34l-1-3-2.88-8.06-1.47-3.91-1.35-3.16-1.23-2.53v.26l-1.6 12.69-.93 7.6-.37 3.27a2.07 2.07 0 0 1-.89 1.48 3 3 0 0 1-1.91.56 2.57 2.57 0 0 1-1.83-.6 2.47 2.47 0 0 1-.65-1.79l3.76-29.47a2.16 2.16 0 0 1 .77-1.32 2.88 2.88 0 0 1 1.92-.68h.61a4 4 0 0 1 3.19 1.46 19.33 19.33 0 0 1 2 3.61q1.23 2.58 2.58 5.9 1.35 3.32 2.7 6.85l2.37 6.23" fill="#1d1d1b"/><path d="M14.3.03h46.26c4.36 0 6.53 3.27 7 7.59l.2 1.38a2.72 2.72 0 0 1-2.39 3 2.67 2.67 0 0 1-2.87-2.42h0l-.2-1.33c-.19-1.64-.88-2.91-2.55-2.91H15.12c-1.67 0-2.36 1.27-2.56 2.91l-.18 1.31a2.66 2.66 0 0 1-2.88 2.41h0a2.71 2.71 0 0 1-2.39-3l.19-1.38C7.82 3.28 9.98 0 14.3 0" fill="red"/></svg>